<?xml version="1.0" standalone="no"?>
<!DOCTYPE svg PUBLIC "-//W3C//DTD SVG 20010904//EN"
 "http://www.w3.org/TR/2001/REC-SVG-20010904/DTD/svg10.dtd">
<svg version="1.0" xmlns="http://www.w3.org/2000/svg"
 width="548.000000pt" height="610.000000pt" viewBox="0 0 548.000000 610.000000"
 preserveAspectRatio="xMidYMid meet">

<g transform="translate(0.000000,610.000000) scale(0.100000,-0.100000)"
fill="#000000" stroke="none">
<path d="M30 3065 l0 -3035 2705 0 2705 0 0 3035 0 3035 -2705 0 -2705 0 0
-3035z m2700 2576 l0 -149 -67 -19 c-100 -29 -165 -44 -170 -40 -3 4 65 112
137 217 17 25 45 66 61 93 17 26 33 47 35 47 2 0 4 -67 4 -149z m-2 -673 l-3
-162 -170 -43 c-93 -24 -215 -54 -270 -67 -55 -14 -152 -38 -215 -55 -63 -16
-116 -28 -118 -26 -3 2 52 89 121 193 l125 189 93 23 c52 13 119 29 149 36 30
7 73 18 95 24 22 6 56 15 75 20 19 5 51 13 70 18 19 6 38 10 43 11 4 1 6 -72
5 -161z m1 -576 l1 -49 -102 -12 c-274 -31 -514 -150 -692 -342 -59 -64 -80
-90 -128 -163 -106 -158 -168 -374 -168 -582 0 -176 25 -298 93 -454 52 -120
189 -315 201 -285 8 21 66 55 82 48 8 -3 36 15 63 40 58 51 135 91 209 108 53
13 180 3 297 -22 28 -6 120 -14 206 -17 168 -8 183 -12 194 -63 l7 -29 31 22
c18 13 57 46 88 74 30 28 68 54 83 58 29 7 56 -7 56 -28 0 -19 -101 -146 -171
-216 -78 -79 -282 -225 -330 -238 -40 -10 -77 -3 -246 44 -126 35 -218 43
-268 24 -45 -17 -27 -41 60 -79 124 -53 216 -76 355 -89 71 -7 75 -8 75 -32 0
-22 -7 -27 -60 -43 -33 -10 -77 -22 -97 -28 -21 -5 -55 -13 -75 -19 -21 -5
-121 -30 -223 -56 -102 -25 -230 -57 -285 -71 -55 -13 -116 -28 -135 -32 -19
-5 -100 -25 -180 -46 -80 -20 -165 -41 -190 -46 -25 -5 -56 -12 -70 -16 -14
-5 880 -10 1985 -13 l2010 -5 3 -838 2 -837 -2675 0 -2675 0 2 837 3 836 215
55 c118 29 231 58 250 62 74 19 167 41 200 50 19 5 55 13 80 19 25 5 72 17
105 26 33 9 76 21 95 25 49 12 158 39 200 50 19 5 64 16 100 24 36 9 83 21
105 27 22 5 56 14 75 19 19 5 64 16 100 25 36 10 81 21 100 25 19 5 98 25 175
45 77 20 167 43 200 50 33 8 68 17 78 20 23 10 22 32 -4 40 -29 9 -121 84
-210 172 l-75 74 -40 -10 c-21 -5 -84 -21 -139 -34 -55 -14 -289 -73 -520
-132 -231 -59 -445 -113 -475 -120 -30 -7 -119 -29 -197 -49 -78 -20 -147 -36
-153 -36 -6 0 34 66 88 148 55 81 111 166 125 189 21 33 34 43 69 51 168 40
306 75 320 83 10 5 25 9 35 9 9 0 30 5 47 10 17 6 67 19 111 29 44 11 143 36
220 56 77 20 156 40 175 45 98 22 163 39 167 44 3 3 -3 36 -15 73 -23 76 -38
145 -47 216 -6 48 -7 48 -38 42 -18 -4 -45 -11 -62 -16 -16 -5 -79 -20 -140
-35 -60 -14 -123 -30 -140 -34 -16 -5 -59 -16 -95 -25 -36 -9 -78 -20 -95 -25
-99 -27 -175 -43 -181 -38 -10 11 239 376 261 381 89 23 236 60 265 68 19 6
53 14 75 19 79 17 159 40 166 47 4 5 19 44 34 88 24 74 76 185 121 262 10 17
16 35 12 38 -4 4 -96 -16 -205 -43 -108 -28 -198 -50 -199 -49 -1 1 52 83 118
182 66 99 123 185 126 192 4 7 39 19 77 28 86 20 128 30 180 45 22 6 67 18
100 25 92 20 282 69 335 85 14 4 61 16 105 25 44 10 87 20 95 23 35 13 175 48
181 45 3 -1 7 -24 8 -51z m264 -267 c-2 -62 -21 -101 -61 -121 -19 -9 -17 -14
44 -79 l64 -70 0 -147 c0 -135 -2 -148 -19 -158 -11 -5 -30 -10 -44 -10 -41 0
-38 -12 16 -69 66 -69 130 -176 164 -273 21 -59 27 -95 29 -185 2 -105 4 -115
28 -144 14 -17 26 -41 26 -54 0 -39 -22 -48 -99 -40 -60 6 -79 3 -152 -22 -79
-26 -93 -28 -249 -27 -149 1 -171 3 -225 24 -49 20 -76 24 -144 22 -51 -1 -89
2 -97 9 -21 18 -17 57 11 93 22 30 25 42 25 125 0 112 11 161 60 268 47 101
90 164 152 224 48 46 48 47 33 75 -8 16 -15 39 -15 50 0 12 -7 28 -16 35 -12
10 -15 24 -10 56 3 24 1 45 -5 48 -5 4 -9 28 -9 53 1 26 -2 61 -5 78 -10 44
38 84 103 85 26 1 38 3 27 6 -37 9 -64 44 -75 99 -20 97 3 119 77 72 67 -43
114 -42 223 4 47 20 99 36 115 35 l30 -2 -2 -60z m654 -274 c53 -71 155 -293
141 -307 -3 -2 -131 -5 -285 -5 -213 0 -297 4 -353 15 -41 9 -78 20 -83 25
-16 16 -14 235 1 254 23 28 150 42 408 45 l150 2 21 -29z"/>
<path d="M2690 2495 c-40 -48 49 -61 130 -20 28 14 50 28 50 30 0 3 -38 5 -84
5 -62 0 -87 -4 -96 -15z"/>
<path d="M290 1472 c-7 -3 -10 -129 -10 -358 l1 -354 104 0 104 0 3 93 3 92
108 8 c153 11 221 46 269 141 25 49 30 173 9 226 -18 46 -66 97 -116 123 -36
19 -62 22 -253 27 -117 3 -217 3 -222 2z m363 -174 c35 -18 46 -40 47 -89 0
-36 -5 -50 -25 -69 -22 -21 -36 -24 -103 -25 l-77 0 -3 98 -3 97 71 0 c39 0
81 -5 93 -12z"/>
<path d="M930 1467 c0 -10 146 -289 221 -423 27 -48 29 -58 29 -167 l0 -116
101 -3 c55 -2 103 -1 105 1 2 2 4 54 4 114 l0 109 51 96 c29 54 72 135 97 182
25 47 60 113 78 146 40 74 40 74 -80 70 -68 -2 -89 -6 -99 -20 -6 -9 -41 -73
-76 -141 -35 -69 -67 -125 -71 -125 -7 0 -37 50 -123 210 -16 30 -33 59 -38
64 -10 12 -199 14 -199 3z"/>
<path d="M1734 1471 c-2 -2 -4 -163 -4 -358 l0 -353 105 0 105 0 0 95 0 96 58
-3 57 -3 48 -92 48 -93 116 0 115 0 -18 28 c-10 15 -23 36 -29 47 -5 11 -27
46 -48 78 -44 68 -45 81 -12 103 37 24 66 78 81 148 30 145 -49 266 -195 297
-52 11 -417 20 -427 10z m407 -190 c13 -16 19 -39 19 -71 0 -42 -4 -52 -31
-74 -27 -23 -39 -26 -110 -26 l-79 0 0 101 0 101 91 -4 c81 -3 93 -6 110 -27z"/>
<path d="M2712 1470 c-4 -3 -22 -39 -39 -80 -18 -41 -62 -145 -99 -230 -94
-221 -164 -388 -164 -394 0 -3 46 -6 103 -6 l102 0 23 60 24 60 143 0 c158 0
150 3 176 -70 l15 -45 112 -3 112 -3 -9 23 c-10 27 -107 260 -126 303 -7 17
-46 110 -85 207 -70 171 -74 178 -104 183 -36 6 -174 3 -184 -5z m114 -237 c3
-10 10 -27 14 -38 5 -11 18 -45 28 -75 11 -30 23 -63 27 -72 7 -16 -1 -18 -84
-18 l-91 0 21 58 c58 162 72 186 85 145z"/>
<path d="M3290 1472 c-7 -3 -10 -124 -10 -358 l0 -354 95 0 95 0 1 203 0 202
30 -65 c17 -36 48 -111 71 -168 l40 -103 70 3 70 3 20 50 c10 28 25 64 33 80
7 17 27 67 45 113 17 45 36 82 41 82 5 0 9 -84 9 -200 l0 -200 90 0 90 0 0
358 0 358 -77 2 c-43 1 -94 -1 -114 -4 -34 -5 -37 -9 -69 -87 -29 -71 -76
-177 -124 -282 l-14 -30 -41 87 c-23 48 -41 90 -41 94 0 3 -13 34 -28 68 -16
33 -37 80 -47 104 -13 29 -24 42 -39 43 -64 3 -187 4 -196 1z"/>
<path d="M4273 1473 l-53 -4 0 -355 0 -354 105 0 105 0 -2 356 -3 356 -50 2
c-27 1 -74 1 -102 -1z"/>
<path d="M4683 1472 l-133 -3 0 -355 0 -356 213 4 c212 4 212 4 278 35 82 38
143 97 176 171 21 47 25 73 26 147 0 81 -3 97 -31 157 -61 127 -169 188 -352
200 -25 2 -105 2 -177 0z m254 -183 c29 -14 52 -35 69 -65 23 -40 26 -53 23
-123 -3 -61 -9 -86 -25 -107 -40 -55 -68 -67 -157 -72 l-84 -4 -7 32 c-8 43
-8 345 1 353 16 16 137 7 180 -14z"/>
<path d="M1177 538 c-51 -19 -44 -91 11 -104 34 -9 52 -22 52 -41 0 -15 -33
-15 -79 -2 -27 8 -22 -26 6 -38 60 -28 116 -3 111 50 -2 27 -10 36 -48 54 -59
28 -60 49 -2 46 51 -2 58 20 11 36 -18 6 -32 11 -33 10 -1 0 -13 -5 -29 -11z"/>
<path d="M600 440 c0 -82 3 -100 15 -100 10 0 15 10 15 28 0 39 14 55 47 57
64 3 67 35 3 35 -42 0 -54 9 -44 34 4 11 19 16 50 16 32 0 44 4 44 15 0 12
-14 15 -65 15 l-65 0 0 -100z"/>
<path d="M790 440 c0 -82 3 -100 15 -100 12 0 15 18 15 100 0 82 -3 100 -15
100 -12 0 -15 -18 -15 -100z"/>
<path d="M902 445 c3 -105 20 -132 28 -45 3 31 9 53 15 51 14 -6 85 -94 85
-104 0 -5 10 -7 23 -5 21 3 22 7 22 98 0 78 -3 95 -15 95 -11 0 -16 -14 -18
-57 -2 -32 -7 -58 -11 -58 -4 0 -29 27 -54 60 -68 87 -78 82 -75 -35z"/>
<path d="M1340 440 l0 -101 68 3 c52 2 67 6 67 18 0 11 -14 16 -50 20 -42 4
-50 8 -50 25 0 16 8 21 45 25 25 3 45 10 45 15 0 6 -20 12 -45 15 -37 4 -45 9
-45 25 0 17 8 21 48 25 71 7 62 25 -15 28 l-68 3 0 -101z"/>
<path d="M1544 527 c-3 -8 -4 -52 -2 -98 2 -67 6 -84 18 -84 10 0 16 12 18 33
4 41 30 43 57 2 11 -16 26 -32 33 -35 26 -10 32 7 13 34 -19 27 -19 27 1 59
25 40 18 79 -18 92 -38 15 -114 12 -120 -3z m107 -33 c19 -23 -1 -49 -37 -49
-25 0 -29 4 -32 33 -3 30 -1 32 26 32 16 0 35 -7 43 -16z"/>
<path d="M1754 498 c33 -105 59 -158 80 -158 13 0 91 189 81 198 -12 12 -38
-14 -54 -56 -25 -62 -36 -70 -50 -30 -23 66 -36 88 -53 88 -15 0 -16 -4 -4
-42z"/>
<path d="M1974 527 c-3 -8 -4 -52 -2 -98 l3 -84 65 0 c51 0 65 3 65 15 0 11
-13 16 -48 18 -43 3 -48 5 -45 25 2 17 11 23 41 27 52 7 51 24 0 28 -38 3 -43
6 -43 28 0 22 4 24 50 24 38 0 50 4 50 15 0 20 -128 22 -136 2z"/>
<path d="M2265 528 c-3 -8 -5 -53 -3 -99 2 -67 6 -84 18 -84 9 0 16 11 18 26
3 23 9 27 45 32 68 9 96 61 59 107 -23 29 -128 42 -137 18z m89 -24 c9 -4 16
-18 16 -34 0 -28 -15 -40 -51 -40 -16 0 -19 7 -19 40 0 41 13 50 54 34z"/>
<path d="M2475 528 c-3 -8 -5 -53 -3 -99 2 -67 6 -84 18 -84 10 0 16 12 18 33
4 42 34 43 59 2 17 -29 48 -48 60 -36 3 3 -2 17 -11 30 -18 28 -21 53 -6 58
17 6 22 62 7 82 -19 26 -134 37 -142 14z m103 -30 c31 -31 -9 -71 -53 -54 -15
5 -21 47 -8 59 11 11 48 8 61 -5z"/>
<path d="M2695 527 c-3 -7 -5 -52 -3 -98 2 -67 6 -84 18 -84 12 0 15 17 15 94
0 67 -4 96 -12 98 -7 3 -15 -2 -18 -10z"/>
<path d="M2790 528 c0 -20 63 -172 74 -180 19 -13 23 -6 75 116 25 58 26 76 6
76 -9 0 -27 -27 -44 -62 l-29 -63 -17 40 c-10 22 -21 50 -26 63 -9 23 -39 31
-39 10z"/>
<path d="M3044 503 c-9 -21 -27 -63 -39 -93 -27 -64 -17 -93 17 -47 15 21 28
27 56 27 28 0 42 -7 58 -27 15 -19 26 -25 33 -18 6 7 -3 40 -29 100 -29 68
-43 91 -59 93 -17 3 -25 -5 -37 -35z m54 -61 c3 -17 -2 -22 -17 -22 -14 0 -21
6 -21 18 0 38 33 41 38 4z"/>
<path d="M3205 530 c-3 -6 1 -12 9 -15 9 -3 23 -7 31 -10 12 -3 15 -22 15 -85
0 -72 2 -81 18 -78 14 3 17 16 20 85 3 75 5 82 24 85 12 2 23 9 26 16 5 15
-133 17 -143 2z"/>
<path d="M3400 440 l0 -101 68 3 c52 2 67 6 67 18 0 11 -13 16 -48 18 -43 3
-48 5 -45 25 2 17 11 23 42 27 58 7 59 30 2 30 -42 0 -46 2 -46 24 0 23 5 25
48 28 71 5 57 23 -20 26 l-68 3 0 -101z"/>
<path d="M3697 534 c-4 -4 -7 -49 -7 -101 l0 -93 61 0 c52 0 60 2 57 18 -2 12
-14 18 -40 20 l-37 3 -3 76 c-3 70 -13 95 -31 77z"/>
<path d="M3875 527 c-3 -7 -5 -52 -3 -98 2 -67 6 -84 18 -84 12 0 15 17 15 94
0 67 -4 96 -12 98 -7 3 -15 -2 -18 -10z"/>
<path d="M3985 527 c-3 -7 -5 -52 -3 -98 2 -67 6 -84 18 -84 11 0 16 16 20 60
l5 60 28 -52 c15 -29 32 -53 37 -53 6 0 20 20 32 45 12 25 25 45 29 45 5 0 9
-24 11 -52 2 -39 7 -53 18 -53 12 0 15 17 15 95 0 94 0 95 -26 98 -22 3 -28
-4 -49 -48 -13 -28 -27 -49 -32 -48 -4 2 -18 23 -30 48 -24 46 -62 66 -73 37z"/>
<path d="M4269 528 c0 -7 -1 -51 -1 -98 -1 -66 2 -85 13 -85 19 0 20 186 2
193 -7 2 -13 -2 -14 -10z"/>
<path d="M4360 525 c0 -9 9 -15 25 -15 24 0 24 -2 27 -82 3 -75 5 -83 23 -83
18 0 20 8 23 83 3 80 3 82 27 82 16 0 25 6 25 15 0 12 -15 15 -75 15 -60 0
-75 -3 -75 -15z"/>
<path d="M4570 440 l0 -101 68 3 c52 2 67 6 67 18 0 11 -14 16 -53 18 -48 3
-53 5 -50 25 2 18 11 23 46 25 28 2 42 8 42 17 0 9 -14 15 -42 17 -35 2 -43 7
-43 23 0 17 8 20 48 23 33 2 47 7 47 18 0 11 -15 14 -65 14 l-65 0 0 -100z"/>
<path d="M4765 528 c-3 -8 -5 -53 -3 -99 l3 -84 45 -3 c82 -5 138 51 124 124
-9 48 -34 65 -103 71 -48 5 -62 3 -66 -9z m98 -27 c33 -13 45 -63 23 -96 -12
-19 -25 -25 -51 -25 l-35 0 0 65 c0 71 7 77 63 56z"/>
<path d="M2612 3303 c3 -26 7 -28 53 -31 46 -3 75 -15 64 -26 -2 -3 -29 -6
-59 -8 -48 -3 -55 -6 -58 -25 -3 -22 0 -23 62 -23 48 0 66 -4 66 -13 0 -19
-37 -36 -85 -39 -34 -3 -40 -7 -43 -28 -2 -19 16 -47 78 -117 67 -77 86 -93
110 -93 16 0 31 4 34 8 2 4 -24 42 -60 84 -66 79 -75 98 -49 98 25 0 63 29 84
66 15 25 27 34 46 34 22 0 26 4 23 22 -2 16 -12 24 -33 28 -18 3 -31 12 -33
23 -3 14 4 17 32 17 32 0 36 3 36 25 l0 25 -136 0 -135 0 3 -27z"/>
</g>
</svg>
